<?xml version="1.0" encoding="utf-8"?>
<!-- Generator: Adobe Illustrator 23.0.2, SVG Export Plug-In . SVG Version: 6.00 Build 0)  -->
<svg version="1.1" id="Layer_1" xmlns="http://www.w3.org/2000/svg" xmlns:xlink="http://www.w3.org/1999/xlink" x="0px" y="0px"
	 viewBox="0 0 232 62" style="enable-background:new 0 0 232 62;" xml:space="preserve">
<style type="text/css">
	.st0{fill:#FFFFFF;}
	.st1{fill:#46764E;}
</style>
<path class="st0" d="M91.7,37.6V41H78.7V21.3h13.1v3.4h-8.9v4.8h8.4v3.2h-8.4v5H91.7z M103.1,41.2c-2.1,0-3.8-1-4.6-2.7h-0.1V41
	h-3.9V21.3h4v7.6h0.1c0.8-1.7,2.4-2.8,4.5-2.8c3.7,0,6,2.8,6,7.6C109,38.4,106.8,41.2,103.1,41.2z M101.7,29.3
	c-1.9,0-3.3,1.7-3.3,4.4c0,2.7,1.3,4.3,3.3,4.3c2,0,3.2-1.7,3.2-4.3C104.9,31,103.7,29.3,101.7,29.3z M117.8,41.3
	c-4.4,0-7.3-2.8-7.3-7.7c0-4.7,2.9-7.6,7.3-7.6s7.3,2.9,7.3,7.6C125.1,38.5,122.3,41.3,117.8,41.3z M117.8,38.3c2,0,3.2-1.7,3.2-4.6
	c0-2.9-1.3-4.6-3.2-4.6s-3.2,1.7-3.2,4.6C114.6,36.6,115.9,38.3,117.8,38.3z M133.9,41.3c-4.4,0-7.3-2.8-7.3-7.7
	c0-4.7,2.9-7.6,7.3-7.6c4.4,0,7.3,2.9,7.3,7.6C141.1,38.5,138.3,41.3,133.9,41.3z M133.9,38.3c2,0,3.2-1.7,3.2-4.6
	c0-2.9-1.3-4.6-3.2-4.6c-1.9,0-3.2,1.7-3.2,4.6C130.7,36.6,131.9,38.3,133.9,38.3z M147.4,32.2l5-5.9h4.5l-5.6,6.3l5.9,8.4h-4.6
	l-4.2-6l-1,1.1V41h-4V21.3h4L147.4,32.2L147.4,32.2z M158.6,21.3h8c4,0,6.8,2.7,6.8,6.8c0,4-2.9,6.8-7,6.8h-3.7V41h-4.1V21.3z
	 M162.7,24.5v7h2.8c2.4,0,3.7-1.3,3.7-3.5c0-2.2-1.4-3.5-3.7-3.5H162.7z M181.8,41.3c-4.4,0-7.3-2.8-7.3-7.7c0-4.7,2.9-7.6,7.3-7.6
	c4.4,0,7.3,2.9,7.3,7.6C189.1,38.5,186.2,41.3,181.8,41.3z M181.8,38.3c2,0,3.2-1.7,3.2-4.6c0-2.9-1.3-4.6-3.2-4.6
	c-1.9,0-3.2,1.7-3.2,4.6C178.6,36.6,179.8,38.3,181.8,38.3z M191.1,41V26.3h3.9V29h0.1c0.5-1.9,1.8-2.9,3.5-2.9
	c0.5,0,0.9,0.1,1.1,0.2v3.5c-0.3-0.1-0.9-0.2-1.4-0.2c-2,0-3.1,1.2-3.1,3.3V41H191.1z M202.4,23h4v3.4h2.7v3h-2.7v7
	c0,1.1,0.5,1.7,1.7,1.7c0.4,0,0.7,0,1-0.1v2.9c-0.4,0.1-1.1,0.2-1.9,0.2c-3.4,0-4.8-1.1-4.8-4v-7.7h-2.1v-3h2.1V23z M216.8,38.3
	c1.7,0,3.2-1.1,3.2-2.7v-1.1l-3.1,0.2c-1.5,0.1-2.3,0.8-2.3,1.8C214.6,37.7,215.5,38.3,216.8,38.3z M215.5,41.2
	c-2.8,0-4.9-1.8-4.9-4.4c0-2.7,2.1-4.2,5.7-4.4l3.7-0.2v-1c0-1.4-1-2.2-2.5-2.2c-1.5,0-2.4,0.7-2.6,1.8h-3.6
	c0.1-2.8,2.6-4.8,6.5-4.8c3.8,0,6.2,1.9,6.2,4.9V41h-3.9v-2.2H220C219.2,40.3,217.3,41.2,215.5,41.2z M226.6,41V21.3h4V41H226.6z"/>
<path class="st0" d="M12,0h38c6.6,0,12,5.4,12,12v38c0,6.6-5.4,12-12,12H12C5.4,62,0,56.6,0,50V12C0,5.4,5.4,0,12,0z"/>
<path class="st1" d="M30.2,49.3c-0.7-0.2-1.3-0.5-2-0.7c-3.3-1.3-6.7-2.4-10.2-2.8c-1.9-0.2-3.7-0.5-5.6-0.7
	c-0.5-0.1-0.6-0.2-0.6-0.7c0-2-0.1-4-0.1-6.1c0-8.2,0-16.4,0-24.6c0-0.3,0-0.5,0-0.8c-0.1-0.6,0.3-0.8,0.8-0.7
	c2.1,0.1,4.3,0.5,6.4,0.8c2.6,0.4,5,1.2,7.4,2.1c1.1,0.4,2.1,0.8,3.2,1.2c0.5,0.2,0.7,0.4,0.7,1c0,2.9,0,5.8,0,8.7
	c0,7.6,0,15.2,0,22.7C30.2,48.9,30.2,49.1,30.2,49.3z"/>
<path class="st1" d="M31.8,49.5c0-11.1,0-22,0-32.8c1.2-0.5,2.3-1.1,3.5-1.5c1.4-0.5,2.8-1,4.2-1.4c1-0.3,2.1-0.3,3.1-0.7
	c2.3-0.7,4.6-0.7,6.9-0.9c0.4,0,0.8,0,0.8,0.6c0,10.6,0,21.2,0,31.8c0,0.1,0,0.2-0.1,0.4C43.8,45.4,37.7,46.8,31.8,49.5z"/>
<path class="st1" d="M35.7,49.6c0.1-0.1,0.2-0.2,0.4-0.2c1.9-0.6,3.8-1.1,5.7-1.7c0.7-0.2,1.4-0.3,2.2-0.4c1.3-0.2,2.6-0.3,3.8-0.5
	c1.3-0.2,2.5-0.4,3.8-0.6c0-0.2,0-0.5,0-0.9c0-9.2,0-18.3,0-27.5c0-0.9,0-0.9,1-0.9c1.6,0,1.6,0,1.6,1.5c0,10.2,0,20.4,0,30.5
	c0,0.6-0.2,0.8-0.8,0.8c-5.2,0-10.5,0-15.7,0c-0.6,0-1.3-0.1-1.9-0.1C35.7,49.7,35.7,49.6,35.7,49.6z"/>
<path class="st1" d="M26.3,49.7c-0.8,0.1-1.6,0.1-2.4,0.1c-5.1,0-10.2,0-15.2,0c-0.6,0-0.8-0.1-0.8-0.7c0-10.5,0-21.1,0-31.6
	c0-0.1,0-0.3,0-0.6c0.7,0,1.4,0,2.1,0c0.1,0,0.3,0.2,0.4,0.4c0.1,0.2,0,0.4,0,0.7c0,9,0,18,0,27c0,0.2,0,0.4,0,0.7
	c0.1,0.5,0.3,0.8,0.8,0.8c1.6,0.1,3.2,0.2,4.8,0.5c3,0.5,6.1,1.1,9,2.1c0.4,0.1,0.8,0.2,1.2,0.4C26.3,49.6,26.3,49.6,26.3,49.7z"/>
</svg>
