<svg width="232" height="62" viewBox="0 0 232 62" fill="none" xmlns="http://www.w3.org/2000/svg">
<path d="M91.7324 37.582V41H78.6621V21.2715H91.7324V24.6758H82.791V29.4336H91.2266V32.6055H82.791V37.582H91.7324ZM103.08 41.2324C100.934 41.2324 99.293 40.1934 98.4863 38.4844H98.4043V41H94.4668V21.2715H98.459V28.8867H98.541C99.3477 27.1504 100.975 26.1113 103.066 26.1113C106.758 26.1113 109.027 28.9414 109.027 33.6719C109.027 38.3887 106.771 41.2324 103.08 41.2324ZM101.699 29.3105C99.7715 29.3105 98.4453 31.0469 98.4453 33.6719C98.4453 36.3242 99.7578 38.0195 101.699 38.0195C103.695 38.0195 104.939 36.3516 104.939 33.6719C104.939 31.0059 103.682 29.3105 101.699 29.3105ZM117.832 41.3145C113.402 41.3145 110.572 38.4707 110.572 33.6582C110.572 28.9141 113.443 26.0293 117.832 26.0293C122.221 26.0293 125.092 28.9004 125.092 33.6582C125.092 38.4844 122.262 41.3145 117.832 41.3145ZM117.832 38.2656C119.787 38.2656 121.031 36.6113 121.031 33.6719C121.031 30.7598 119.773 29.0781 117.832 29.0781C115.891 29.0781 114.619 30.7598 114.619 33.6719C114.619 36.6113 115.863 38.2656 117.832 38.2656ZM133.883 41.3145C129.453 41.3145 126.623 38.4707 126.623 33.6582C126.623 28.9141 129.494 26.0293 133.883 26.0293C138.271 26.0293 141.143 28.9004 141.143 33.6582C141.143 38.4844 138.312 41.3145 133.883 41.3145ZM133.883 38.2656C135.838 38.2656 137.082 36.6113 137.082 33.6719C137.082 30.7598 135.824 29.0781 133.883 29.0781C131.941 29.0781 130.67 30.7598 130.67 33.6719C130.67 36.6113 131.914 38.2656 133.883 38.2656ZM147.35 32.2227L152.326 26.3438H156.852L151.26 32.6328L157.125 41H152.531L148.334 35.0391L147.295 36.1602V41H143.303V21.2715H147.295V32.2227H147.35ZM158.615 21.2715H166.641C170.688 21.2715 173.477 23.9648 173.477 28.0254C173.477 32.0723 170.592 34.7793 166.436 34.7793H162.744V41H158.615V21.2715ZM162.744 24.5391V31.5527H165.533C167.898 31.5527 169.279 30.2949 169.279 28.0391C169.279 25.7969 167.912 24.5391 165.547 24.5391H162.744ZM181.816 41.3145C177.387 41.3145 174.557 38.4707 174.557 33.6582C174.557 28.9141 177.428 26.0293 181.816 26.0293C186.205 26.0293 189.076 28.9004 189.076 33.6582C189.076 38.4844 186.246 41.3145 181.816 41.3145ZM181.816 38.2656C183.771 38.2656 185.016 36.6113 185.016 33.6719C185.016 30.7598 183.758 29.0781 181.816 29.0781C179.875 29.0781 178.604 30.7598 178.604 33.6719C178.604 36.6113 179.848 38.2656 181.816 38.2656ZM191.141 41V26.3438H194.996V28.9824H195.078C195.598 27.123 196.842 26.1113 198.564 26.1113C199.029 26.1113 199.426 26.1797 199.699 26.2617V29.7754C199.371 29.6387 198.824 29.543 198.25 29.543C196.281 29.543 195.133 30.7461 195.133 32.8105V41H191.141ZM202.406 22.9668H206.398V26.3438H209.105V29.3516H206.398V36.3652C206.398 37.4863 206.945 38.0195 208.121 38.0195C208.477 38.0195 208.846 37.9922 209.092 37.9512V40.8906C208.682 40.9863 207.998 41.0547 207.191 41.0547C203.746 41.0547 202.406 39.9062 202.406 37.0488V29.3516H200.342V26.3438H202.406V22.9668ZM216.816 38.3477C218.553 38.3477 219.988 37.2129 219.988 35.627V34.5605L216.898 34.752C215.408 34.8613 214.561 35.5312 214.561 36.5703C214.561 37.6641 215.463 38.3477 216.816 38.3477ZM215.504 41.2324C212.715 41.2324 210.596 39.4277 210.596 36.7891C210.596 34.123 212.646 32.5781 216.297 32.3594L219.988 32.1406V31.1699C219.988 29.8027 219.031 29.0098 217.527 29.0098C216.037 29.0098 215.094 29.748 214.902 30.8281H211.252C211.402 27.9844 213.822 26.0293 217.705 26.0293C221.465 26.0293 223.912 27.9707 223.912 30.9238V41H220.057V38.7578H219.975C219.154 40.3164 217.336 41.2324 215.504 41.2324ZM226.592 41V21.2715H230.584V41H226.592Z" fill="black"/>
<rect width="62" height="62" rx="12" fill="#46764E"/>
<path d="M30.2209 49.3451C29.5252 49.0961 28.8851 48.8747 28.245 48.6257C24.9334 47.3253 21.5661 46.2462 18.0318 45.7758C16.1672 45.5268 14.3027 45.2778 12.4382 45.0564C11.9651 45.0011 11.8816 44.8074 11.8816 44.3924C11.8816 42.3725 11.8259 40.3527 11.8259 38.3329C11.8259 30.1152 11.7981 21.8975 11.7981 13.7075C11.7981 13.4308 11.8259 13.1818 11.7981 12.9051C11.7424 12.2687 12.0485 12.1304 12.633 12.1581C14.7758 12.2687 16.8908 12.6284 19.0336 12.9881C21.5939 13.4308 24.015 14.2332 26.4362 15.0633C27.5215 15.423 28.579 15.8934 29.6643 16.3084C30.1374 16.4744 30.3322 16.7511 30.3322 17.2768C30.3044 20.1821 30.3044 23.0873 30.3044 25.9649C30.3044 33.5461 30.3044 41.1274 30.3044 48.7087C30.2487 48.8747 30.2487 49.0684 30.2209 49.3451Z" fill="white"/>
<path d="M31.7515 49.4556C31.7515 38.3327 31.7515 27.4865 31.7515 16.6956C32.9481 16.1699 34.0613 15.6165 35.2301 15.1738C36.5937 14.6481 38.013 14.1777 39.4044 13.7627C40.4341 13.4583 41.5195 13.4307 42.5213 13.0986C44.7754 12.3516 47.0853 12.3516 49.3951 12.1856C49.8403 12.1579 50.1464 12.2132 50.1464 12.7943C50.1186 23.3915 50.1186 33.9887 50.1186 44.5859C50.1186 44.6689 50.0908 44.7795 50.063 44.9455C43.7736 45.4159 37.679 46.827 31.7515 49.4556Z" fill="white"/>
<path d="M35.6754 49.5944C35.7867 49.539 35.898 49.4284 36.0372 49.4007C37.9296 48.8473 39.8219 48.2663 41.7143 47.7406C42.41 47.5469 43.1614 47.4639 43.885 47.3809C45.1651 47.1872 46.4453 47.0488 47.7254 46.8552C48.9777 46.6615 50.23 46.4401 51.5658 46.2188C51.5658 45.9974 51.5658 45.6931 51.5658 45.361C51.5658 36.2026 51.5658 27.0442 51.5658 17.8858C51.5658 16.9451 51.5658 16.9451 52.5398 16.9451C54.0982 16.9451 54.0982 16.9451 54.0982 18.4945C54.0982 28.6767 54.0982 38.8588 54.0982 49.041C54.0982 49.6497 53.9313 49.8157 53.319 49.8157C48.0872 49.7881 42.8275 49.8157 37.5956 49.8157C36.9834 49.8157 36.3433 49.7604 35.7311 49.7051C35.7032 49.6774 35.7032 49.6497 35.6754 49.5944Z" fill="white"/>
<path d="M26.3248 49.7322C25.4899 49.7876 24.7107 49.8429 23.9315 49.8429C18.8666 49.8429 13.7739 49.8429 8.70902 49.8429C8.15244 49.8429 7.90198 49.7322 7.90198 49.0959C7.92981 38.5817 7.92981 28.0398 7.92981 17.5256C7.92981 17.3873 7.95764 17.2489 7.95764 16.9722C8.65336 16.9722 9.34909 16.9446 10.0726 16.9999C10.2118 16.9999 10.3788 17.2213 10.4344 17.3596C10.4901 17.5533 10.4622 17.8023 10.4622 18.0237C10.4622 27.0437 10.4622 36.0638 10.4901 45.0562C10.4901 45.2775 10.4901 45.4989 10.5179 45.7203C10.5736 46.1906 10.7962 46.495 11.3528 46.5227C12.9669 46.661 14.5809 46.7717 16.1672 47.0207C19.2006 47.5187 22.2339 48.0998 25.1281 49.1512C25.5178 49.2895 25.9074 49.4002 26.297 49.5386C26.2691 49.5662 26.2691 49.5939 26.3248 49.7322Z" fill="white"/>
</svg>
