<svg width="22" height="22" viewBox="0 0 22 22" fill="none" xmlns="http://www.w3.org/2000/svg">
<path d="M10.9961 15.428C11.9895 15.428 12.8317 15.0825 13.5226 14.3916C14.2135 13.7007 14.559 12.8585 14.559 11.8651C14.559 10.8718 14.2135 10.0296 13.5226 9.33869C12.8317 8.64778 11.9895 8.30232 10.9961 8.30232C10.0027 8.30232 9.16059 8.64778 8.46967 9.33869C7.77876 10.0296 7.4333 10.8718 7.4333 11.8651C7.4333 12.8585 7.77876 13.7007 8.46967 14.3916C9.16059 15.0825 10.0027 15.428 10.9961 15.428ZM10.9961 14.1294C10.3568 14.1294 9.8196 13.9119 9.3845 13.4768C8.94941 13.0417 8.73186 12.5045 8.73186 11.8651C8.73186 11.2258 8.94941 10.6886 9.3845 10.2535C9.8196 9.81843 10.3568 9.60088 10.9961 9.60088C11.6354 9.60088 12.1726 9.81843 12.6077 10.2535C13.0428 10.6886 13.2604 11.2258 13.2604 11.8651C13.2604 12.5045 13.0428 13.0417 12.6077 13.4768C12.1726 13.9119 11.6354 14.1294 10.9961 14.1294ZM4.33661 18.3582C3.89929 18.3582 3.52913 18.2067 3.22612 17.9037C2.92311 17.6007 2.77161 17.2305 2.77161 16.7932L2.77161 6.93711C2.77161 6.49979 2.92311 6.12963 3.22612 5.82662C3.52913 5.52361 3.89929 5.37211 4.33661 5.37211L6.98043 5.37211L8.58205 3.64062L13.4102 3.64062L15.0118 5.37211L17.6556 5.37211C18.093 5.37211 18.4631 5.52361 18.7661 5.82662C19.0691 6.12963 19.2206 6.49979 19.2206 6.93711L19.2206 16.7932C19.2206 17.2305 19.0691 17.6007 18.7661 17.9037C18.4631 18.2067 18.093 18.3582 17.6556 18.3582H4.33661ZM4.33661 17.0596H17.6556C17.7333 17.0596 17.7972 17.0346 17.8471 16.9847C17.8971 16.9347 17.9221 16.8709 17.9221 16.7932V6.93711C17.9221 6.85941 17.8971 6.79558 17.8471 6.74563C17.7972 6.69567 17.7333 6.6707 17.6556 6.6707H14.4324L12.8442 4.93922L9.14809 4.93922L7.5598 6.6707L4.33661 6.6707C4.25891 6.6707 4.19508 6.69567 4.14513 6.74563C4.09517 6.79558 4.0702 6.85941 4.0702 6.93711L4.0702 16.7932C4.0702 16.8709 4.09517 16.9347 4.14513 16.9847C4.19508 17.0346 4.25891 17.0596 4.33661 17.0596Z" fill="black"/>
</svg>
