<svg width="18" height="18" viewBox="0 0 18 18" fill="none" xmlns="http://www.w3.org/2000/svg">
<g clip-path="url(#clip0_2081_14398)">
<path d="M14.625 2.4375C14.8736 2.4375 15.1121 2.53627 15.2879 2.71209C15.4637 2.8879 15.5625 3.12636 15.5625 3.375V14.625C15.5625 14.8736 15.4637 15.1121 15.2879 15.2879C15.1121 15.4637 14.8736 15.5625 14.625 15.5625H3.375C3.12636 15.5625 2.8879 15.4637 2.71209 15.2879C2.53627 15.1121 2.4375 14.8736 2.4375 14.625V3.375C2.4375 3.12636 2.53627 2.8879 2.71209 2.71209C2.8879 2.53627 3.12636 2.4375 3.375 2.4375H14.625ZM3.375 1.5C2.87772 1.5 2.40081 1.69754 2.04917 2.04917C1.69754 2.40081 1.5 2.87772 1.5 3.375L1.5 14.625C1.5 15.1223 1.69754 15.5992 2.04917 15.9508C2.40081 16.3025 2.87772 16.5 3.375 16.5H14.625C15.1223 16.5 15.5992 16.3025 15.9508 15.9508C16.3025 15.5992 16.5 15.1223 16.5 14.625V3.375C16.5 2.87772 16.3025 2.40081 15.9508 2.04917C15.5992 1.69754 15.1223 1.5 14.625 1.5H3.375Z" fill="#DCDCDC"/>
</g>
<defs>
<clipPath id="clip0_2081_14398">
<rect width="15" height="15" fill="white" transform="translate(1.5 1.5)"/>
</clipPath>
</defs>
</svg>
