<svg width="18" height="18" viewBox="0 0 18 18" fill="none" xmlns="http://www.w3.org/2000/svg">
<g clip-path="url(#clip0_2081_14388)">
<path d="M3.375 1.5C2.87772 1.5 2.40081 1.69754 2.04917 2.04917C1.69754 2.40081 1.5 2.87772 1.5 3.375L1.5 14.625C1.5 15.1223 1.69754 15.5992 2.04917 15.9508C2.40081 16.3025 2.87772 16.5 3.375 16.5H14.625C15.1223 16.5 15.5992 16.3025 15.9508 15.9508C16.3025 15.5992 16.5 15.1223 16.5 14.625V3.375C16.5 2.87772 16.3025 2.40081 15.9508 2.04917C15.5992 1.69754 15.1223 1.5 14.625 1.5H3.375ZM12.7781 6.15937C12.9083 6.28945 12.9824 6.46541 12.9843 6.64946C12.9862 6.8335 12.9159 7.01097 12.7884 7.14375L9.04594 11.8219C8.98162 11.8912 8.90399 11.9468 8.81769 11.9853C8.73139 12.0239 8.63819 12.0447 8.54367 12.0465C8.44915 12.0482 8.35525 12.0309 8.26758 11.9955C8.17992 11.9602 8.10028 11.9075 8.03344 11.8406L5.55375 9.36C5.48467 9.29563 5.42926 9.218 5.39083 9.13175C5.3524 9.04551 5.33174 8.9524 5.33007 8.85799C5.3284 8.76358 5.34577 8.6698 5.38113 8.58225C5.4165 8.4947 5.46913 8.41517 5.5359 8.3484C5.60267 8.28163 5.6822 8.229 5.76975 8.19363C5.8573 8.15827 5.95108 8.1409 6.04549 8.14257C6.1399 8.14424 6.23301 8.1649 6.31925 8.20333C6.4055 8.24176 6.48313 8.29717 6.5475 8.36625L8.51063 10.3284L11.7666 6.18C11.8308 6.1106 11.9083 6.05485 11.9945 6.0161C12.0807 5.97734 12.1739 5.95637 12.2684 5.95445C12.3629 5.95252 12.4569 5.96968 12.5446 6.00489C12.6324 6.0401 12.7121 6.09264 12.7791 6.15937H12.7781Z" fill="#46764E"/>
</g>
<defs>
<clipPath id="clip0_2081_14388">
<rect width="15" height="15" fill="white" transform="translate(1.5 1.5)"/>
</clipPath>
</defs>
</svg>
