<svg width="24" height="24" viewBox="0 0 24 24" fill="none" xmlns="http://www.w3.org/2000/svg">
<path d="M15.2027 10.7692C15.4036 10.7711 15.5803 10.8481 15.7333 11.001C15.8761 11.1541 15.9497 11.3268 15.9547 11.5196C15.9598 11.7119 15.8864 11.8843 15.7334 12.0373L12.6238 15.1469C12.5313 15.2395 12.434 15.3044 12.3322 15.3421C12.2298 15.38 12.1191 15.399 12 15.399C11.8808 15.399 11.7701 15.38 11.6678 15.3421C11.5659 15.3044 11.4687 15.2395 11.3761 15.1469L8.26654 12.0373C8.12005 11.8908 8.04813 11.72 8.05002 11.5242C8.05191 11.3282 8.1239 11.154 8.26669 11.001C8.41975 10.848 8.59492 10.7695 8.79262 10.7644C8.99015 10.7594 9.16513 10.8328 9.31809 10.9858L11.2412 12.9089L11.2625 12.9302V12.9V5.25C11.2625 5.04032 11.3331 4.86536 11.4742 4.72424C11.6153 4.58311 11.7903 4.5125 12 4.5125C12.2097 4.5125 12.3846 4.58311 12.5257 4.72424C12.6669 4.86536 12.7374 5.04032 12.7374 5.25V12.9V12.9302L12.7588 12.9089L14.6819 10.9858C14.8283 10.8394 15.0017 10.7674 15.2027 10.7692ZM6.3077 19.4875C5.80581 19.4875 5.38144 19.3137 5.03384 18.9661C4.68624 18.6185 4.5125 18.1941 4.5125 17.6923V15.7307C4.5125 15.521 4.58311 15.3461 4.72424 15.205C4.86536 15.0638 5.04032 14.9932 5.25 14.9932C5.45968 14.9932 5.63464 15.0638 5.77576 15.205C5.91688 15.3461 5.98747 15.521 5.98747 15.7307V17.6923C5.98747 17.7731 6.02129 17.8467 6.08728 17.9127C6.1533 17.9787 6.22687 18.0125 6.3077 18.0125H17.6922C17.7731 18.0125 17.8467 17.9787 17.9127 17.9127C17.9787 17.8467 18.0125 17.7731 18.0125 17.6923V15.7307C18.0125 15.521 18.0831 15.3461 18.2242 15.205C18.3653 15.0638 18.5403 14.9932 18.75 14.9932C18.9596 14.9932 19.1346 15.0638 19.2757 15.205C19.4168 15.3461 19.4875 15.521 19.4875 15.7307V17.6923C19.4875 18.1941 19.3137 18.6185 18.9661 18.9661C18.6185 19.3137 18.1941 19.4875 17.6922 19.4875H6.3077Z" fill="black" stroke="black" stroke-width="0.025"/>
</svg>
