<svg enable-background="new 0 0 32 32" height="512" viewBox="0 0 32 32" width="512" xmlns="http://www.w3.org/2000/svg"><g id="Layer_1"><circle cx="16" cy="16" fill="#e6e7e8" r="14"/><g fill="#231f20"><path d="m12.9371 22.6985c.9313 0 1.8625-.3545 2.5716-1.0636l1.9145-1.9145c.3631-.3629.3631-.9517 0-1.3146-.3627-.3632-.9519-.3632-1.3146 0l-1.9145 1.9145c-.6932.6932-1.8212.6929-2.5144-.0002-.6929-.6932-.6929-1.821 0-2.5141l1.9145-1.9145c.3632-.3629.3632-.9517 0-1.3146-.3627-.3632-.9519-.3632-1.3146 0l-1.9145 1.9145c-1.4181 1.4181-1.4181 3.7255.0002 5.1436.709.7089 1.6403 1.0635 2.5718 1.0635z"/><path d="m21.6347 10.365c-1.4179-1.4176-3.725-1.4181-5.1433 0l-1.9145 1.9145c-.3632.3629-.3632.9517 0 1.3146.3627.3632.9519.3632 1.3146 0l1.9145-1.9145c.6932-.6932 1.8212-.6929 2.5144.0002.6929.6932.6929 1.821 0 2.5141l-1.9145 1.9145c-.3631.3629-.3631.9517 0 1.3146.1813.1816.4194.2724.6573.2724s.476-.0908.6573-.2724l1.9145-1.9145c1.4181-1.4181 1.4181-3.7254-.0003-5.1435z"/><path d="m18.5718 13.4281c-.3627-.3632-.9519-.3632-1.3146 0l-3.829 3.829c-.3632.3629-.3632.9517 0 1.3146.1813.1816.4194.2724.6573.2724s.476-.0908.6573-.2724l3.829-3.829c.3631-.3629.3631-.9516 0-1.3146z"/></g></g></svg>