<svg width="24" height="24" viewBox="0 0 24 24" fill="none" xmlns="http://www.w3.org/2000/svg">
<path d="M11.9899 21C11.7645 21 11.5381 20.9582 11.3107 20.8746C11.0833 20.791 10.8833 20.66 10.7105 20.4816L9.19841 19.0623C7.33201 17.305 5.66567 15.5787 4.1994 13.8834C2.73313 12.1881 2 10.3719 2 8.4349C2 6.89224 2.50371 5.60075 3.51114 4.56045C4.51856 3.52015 5.76923 3 7.26314 3C8.11199 3 8.95039 3.20207 9.77834 3.60621C10.6063 4.01035 11.3468 4.66673 12 5.57534C12.6532 4.66673 13.3937 4.01035 14.2217 3.60621C15.0496 3.20207 15.888 3 16.7369 3C18.2308 3 19.4814 3.52015 20.4889 4.56045C21.4963 5.60075 22 6.89224 22 8.4349C22 10.3929 21.2544 12.2292 19.7632 13.944C18.2719 15.6588 16.6093 17.3705 14.7753 19.079L13.2793 20.4816C13.1066 20.66 12.9049 20.791 12.6741 20.8746C12.4433 20.9582 12.2152 21 11.9899 21ZM11.2429 7.22669C10.6734 6.33062 10.0739 5.6739 9.44433 5.25653C8.81477 4.83914 8.08771 4.63045 7.26314 4.63045C6.21051 4.63045 5.33332 4.99278 4.63156 5.71744C3.9298 6.4421 3.57893 7.34792 3.57893 8.4349C3.57893 9.30728 3.85119 10.2194 4.39572 11.1712C4.94024 12.123 5.62377 13.0692 6.4463 14.0098C7.26885 14.9505 8.15987 15.8696 9.11939 16.767C10.0789 17.6645 10.9682 18.4985 11.7874 19.2692C11.8482 19.325 11.919 19.3528 12 19.3528C12.081 19.3528 12.1518 19.325 12.2126 19.2692C13.0318 18.4985 13.9211 17.6645 14.8806 16.767C15.8401 15.8696 16.7312 14.9505 17.5537 14.0098C18.3762 13.0692 19.0598 12.123 19.6043 11.1712C20.1488 10.2194 20.4211 9.30728 20.4211 8.4349C20.4211 7.34792 20.0702 6.4421 19.3684 5.71744C18.6667 4.99278 17.7895 4.63045 16.7369 4.63045C15.9123 4.63045 15.1852 4.83914 14.5557 5.25653C13.9261 5.6739 13.3266 6.33062 12.7571 7.22669C12.668 7.36604 12.556 7.47057 12.4211 7.54026C12.2861 7.60994 12.1457 7.64477 12 7.64477C11.8543 7.64477 11.7139 7.60994 11.5789 7.54026C11.444 7.47057 11.332 7.36604 11.2429 7.22669Z" fill="black"/>
</svg>
