<svg width="24" height="24" viewBox="0 0 24 24" fill="none" xmlns="http://www.w3.org/2000/svg">
<path d="M9.69839 13.6664L10.5619 10.8537L10.5823 10.8599L10.5578 10.8403L8.28548 9.0125H11.1H11.1091L11.1119 9.00383L12 6.24085L12.8881 9.00383L12.8909 9.0125H12.9H15.7142L13.4172 10.8402L13.4037 10.8232L13.4131 10.8537L14.2765 13.6661L12.0076 11.9151L12 11.9092L11.9924 11.9151L9.69839 13.6664ZM17.9875 15.275V22.9827L12.004 20.9881L12.0049 20.9852L11.996 20.9881L6.0125 22.9827V15.275H6.01686L6.00927 15.2666C5.37698 14.5678 4.88611 13.7691 4.53665 12.8705C4.18724 11.972 4.0125 11.0152 4.0125 10C4.0125 7.76991 4.78623 5.88145 6.33384 4.33384C7.88145 2.78623 9.76991 2.0125 12 2.0125C14.2301 2.0125 16.1186 2.78623 17.6662 4.33384C19.2138 5.88145 19.9875 7.76991 19.9875 10C19.9875 11.0152 19.8128 11.972 19.4634 12.8705C19.1139 13.7691 18.623 14.5678 17.9907 15.2666L17.9875 15.2637V15.275ZM7.9875 20.025V20.0411L8.0031 20.0371L12 19.0129L15.9969 20.0371L16.0125 20.0411V20.025V16.925V16.9035L15.9938 16.9141C15.4114 17.247 14.7832 17.5091 14.1091 17.7005C13.4352 17.8918 12.7322 17.9875 12 17.9875C11.2678 17.9875 10.5648 17.8918 9.89091 17.7005C9.21684 17.5091 8.58862 17.247 8.0062 16.9141L7.9875 16.9035V16.925V20.025ZM12 16.0125C13.6699 16.0125 15.0898 15.4279 16.2588 14.2588C17.4279 13.0898 18.0125 11.6699 18.0125 10C18.0125 8.33006 17.4279 6.9102 16.2588 5.74116C15.0898 4.57212 13.6699 3.9875 12 3.9875C10.3301 3.9875 8.9102 4.57212 7.74116 5.74116C6.57212 6.9102 5.9875 8.33006 5.9875 10C5.9875 11.6699 6.57212 13.0898 7.74116 14.2588C8.9102 15.4279 10.3301 16.0125 12 16.0125Z" fill="black" stroke="black" stroke-width="0.025"/>
</svg>
