<svg width="20" height="20" viewBox="0 0 20 20" fill="none" xmlns="http://www.w3.org/2000/svg">
<path d="M6.14454 10.6251L10.4522 14.9328C10.5762 15.0567 10.6373 15.2018 10.6357 15.3679C10.6341 15.534 10.5687 15.6817 10.4394 15.811C10.3101 15.9317 10.1638 15.9942 10.0003 15.9985C9.83687 16.0028 9.69051 15.9403 9.56124 15.811L4.2776 10.5274C4.19961 10.4494 4.14459 10.3671 4.11254 10.2806C4.08048 10.194 4.06445 10.1006 4.06445 10.0001C4.06445 9.8997 4.08048 9.80622 4.11254 9.71969C4.14459 9.63315 4.19961 9.55089 4.2776 9.4729L9.56124 4.18925C9.67662 4.07387 9.81951 4.01484 9.98991 4.01217C10.1603 4.0095 10.3101 4.06853 10.4394 4.18925C10.5687 4.31852 10.6333 4.46702 10.6333 4.63475C10.6333 4.80249 10.5687 4.95099 10.4394 5.08025L6.14454 9.37515H15.6253C15.8027 9.37515 15.9512 9.43498 16.0708 9.55463C16.1905 9.67428 16.2503 9.82278 16.2503 10.0001C16.2503 10.1775 16.1905 10.326 16.0708 10.4456C15.9512 10.5653 15.8027 10.6251 15.6253 10.6251H6.14454Z" fill="black"/>
</svg>
