<svg width="24" height="24" viewBox="0 0 24 24" fill="none" xmlns="http://www.w3.org/2000/svg">
<path d="M8.86239 18.7983L8.87571 18.7965L8.85449 18.7883C8.6385 18.7053 8.435 18.6056 8.244 18.4893C8.05263 18.3728 7.86541 18.248 7.68235 18.1149L7.68918 18.1055L7.67017 18.1135L6.12016 18.7635L6.11997 18.7636C5.70614 18.9456 5.29279 18.9621 4.87923 18.8132C4.46534 18.6642 4.14262 18.3995 3.91076 18.0186C3.91073 18.0186 3.9107 18.0185 3.91068 18.0185L2.73585 15.9688L2.73568 15.9685C2.50402 15.5879 2.43792 15.1829 2.53718 14.7528C2.63653 14.3223 2.85993 13.9664 3.20769 13.6849C3.20775 13.6848 3.20781 13.6848 3.20786 13.6847L4.53253 12.685L4.54057 12.6956L4.53737 12.6732C4.52078 12.5571 4.5125 12.4452 4.5125 12.3375V11.6625C4.5125 11.5548 4.52078 11.4429 4.53737 11.3268L4.55059 11.3287L4.53253 11.315L3.20786 10.3153C3.20781 10.3152 3.20776 10.3152 3.20771 10.3152C2.85994 10.0336 2.63653 9.6777 2.53718 9.24719C2.43792 8.81707 2.50402 8.41207 2.73568 8.0315L2.73568 8.0315L2.73584 8.03122L3.91068 5.9815C3.91071 5.98145 3.91074 5.9814 3.91076 5.98135C4.14263 5.6005 4.46534 5.33576 4.87923 5.18676C5.29279 5.03788 5.70614 5.05436 6.11996 5.23644L6.12017 5.23653L7.67017 5.88653L7.66567 5.89724L7.68235 5.88511C7.86534 5.75203 8.05665 5.62726 8.2563 5.5108C8.45585 5.39439 8.65535 5.29464 8.85481 5.21154L8.8595 5.22281L8.86239 5.20169L9.08735 3.5519C9.08736 3.55187 9.08736 3.55184 9.08737 3.55181C9.15361 3.12134 9.34806 2.75726 9.67098 2.45919C9.99362 2.16136 10.3781 2.0125 10.825 2.0125H13.175C13.6219 2.0125 14.0064 2.16136 14.329 2.45919C14.6519 2.75726 14.8464 3.12134 14.9126 3.55181C14.9126 3.55184 14.9126 3.55187 14.9126 3.5519L15.1376 5.20169L15.1243 5.20351L15.1455 5.21167C15.3615 5.29474 15.565 5.39441 15.756 5.51068C15.9474 5.62716 16.1346 5.75197 16.3176 5.88511L16.3108 5.8945L16.3298 5.88653L17.8798 5.23653L17.88 5.23644C18.2939 5.05436 18.7072 5.03788 19.1208 5.18676C19.5347 5.33576 19.8574 5.6005 20.0892 5.98134C20.0893 5.9814 20.0893 5.98145 20.0893 5.9815L21.2642 8.03122L21.2643 8.0315C21.496 8.41207 21.5621 8.81707 21.4628 9.24719C21.3635 9.67771 21.1401 10.0336 20.7923 10.3152C20.7922 10.3152 20.7922 10.3152 20.7921 10.3153L19.4675 11.315L19.4594 11.3044L19.4626 11.3268C19.4792 11.4429 19.4875 11.5548 19.4875 11.6625V12.3375C19.4875 12.4445 19.471 12.5559 19.438 12.6716L19.4356 12.6798L19.4425 12.685L20.7671 13.6847C20.7672 13.6848 20.7672 13.6848 20.7673 13.6848C21.1151 13.9664 21.3385 14.3223 21.4378 14.7528C21.5371 15.1829 21.471 15.5879 21.2393 15.9685L21.2392 15.9687L20.0393 18.0185C20.0393 18.0185 20.0393 18.0186 20.0393 18.0186C19.8074 18.3995 19.4847 18.6642 19.0708 18.8132C18.6572 18.9621 18.2439 18.9456 17.83 18.7636L17.83 18.7635L16.33 18.1135L16.3348 18.1024L16.3176 18.1149C16.1347 18.248 15.9433 18.3727 15.7437 18.4892C15.5441 18.6056 15.3446 18.7054 15.1452 18.7885L15.1405 18.7772L15.1376 18.7983L14.9126 20.4481C14.9126 20.4481 14.9126 20.4482 14.9126 20.4482C14.8464 20.8787 14.6519 21.2427 14.329 21.5408C14.0064 21.8386 13.6219 21.9875 13.175 21.9875H10.825C10.3781 21.9875 9.99362 21.8386 9.67098 21.5408C9.34806 21.2427 9.15361 20.8787 9.08737 20.4482C9.08736 20.4482 9.08736 20.4481 9.08735 20.4481L8.86239 18.7983ZM10.9876 20.0015L10.9889 20.0125H11H12.975H12.986L12.9874 20.0016L13.3363 17.36C13.8509 17.2264 14.3284 17.0309 14.7688 16.7733C15.209 16.5158 15.6121 16.2046 15.9779 15.8397L18.4452 16.8615L18.4554 16.8658L18.4608 16.8562L19.4358 15.1562L19.4413 15.1467L19.4325 15.14L17.2898 13.5206C17.3719 13.2889 17.4294 13.0451 17.4624 12.7891C17.4958 12.5302 17.5125 12.2672 17.5125 12C17.5125 11.7328 17.4958 11.4698 17.4624 11.2109C17.4294 10.9549 17.3719 10.7111 17.2898 10.4794L19.4325 8.85997L19.4413 8.85333L19.4358 8.84378L18.4608 7.14378L18.4553 7.13416L18.4451 7.13849L15.9781 8.18512C15.6122 7.80374 15.2091 7.48425 14.7688 7.22671C14.3285 6.96915 13.851 6.77359 13.3364 6.64003L13.0124 3.99848L13.0111 3.9875H13H11.025H11.014L11.0126 3.99836L10.6637 6.64001C10.1491 6.77357 9.67157 6.96913 9.23119 7.22671C8.79096 7.4842 8.38792 7.79539 8.02207 8.16026L5.55478 7.13845L5.54463 7.13424L5.53916 7.14378L4.56416 8.84378L4.55864 8.8534L4.56754 8.86003L6.71029 10.4546C6.62824 10.7025 6.57067 10.9504 6.53761 11.1983C6.50419 11.449 6.4875 11.7162 6.4875 12C6.4875 12.2672 6.5042 12.5261 6.53761 12.7767C6.57067 13.0246 6.62825 13.2726 6.71031 13.5204L4.56746 15.14L4.55868 15.1467L4.56416 15.1562L5.53916 16.8562L5.54467 16.8658L5.55488 16.8615L8.02194 15.8149C8.3878 16.1963 8.79088 16.5158 9.23119 16.7733C9.67154 17.0309 10.149 17.2264 10.6636 17.36L10.9876 20.0015ZM14.5162 14.4662C13.8352 15.1472 13.0134 15.4875 12.05 15.4875C11.0699 15.4875 10.244 15.1471 9.57139 14.4662C8.89872 13.7852 8.5625 12.9634 8.5625 12C8.5625 11.0366 8.89872 10.2148 9.57139 9.53378C10.244 8.85289 11.0699 8.5125 12.05 8.5125C13.0134 8.5125 13.8352 8.85285 14.5162 9.53384C15.1971 10.2148 15.5375 11.0366 15.5375 12C15.5375 12.9634 15.1971 13.7852 14.5162 14.4662Z" fill="black" stroke="black" stroke-width="0.025"/>
</svg>
