<svg width="24" height="24" viewBox="0 0 24 24" fill="none" xmlns="http://www.w3.org/2000/svg">
<path d="M7.5 8.51245H7.5125V8.49995V6.49995C7.5125 5.25453 7.94902 4.19556 8.82229 3.32229C9.69557 2.44902 10.7546 2.0125 12 2.0125C13.2454 2.0125 14.3044 2.44902 15.1777 3.32229C16.0509 4.19556 16.4875 5.25453 16.4875 6.49995V8.49995V8.51245H16.5H17.6922C18.1876 8.51245 18.6104 8.68774 18.9613 9.03861C19.3122 9.38947 19.4875 9.81226 19.4875 10.3077V19.6922C19.4875 20.1876 19.3122 20.6104 18.9613 20.9612C18.6104 21.3121 18.1876 21.4874 17.6922 21.4874H6.3077C5.8123 21.4874 5.38952 21.3121 5.03866 20.9612C4.68779 20.6104 4.5125 20.1876 4.5125 19.6922V10.3077C4.5125 9.81226 4.68779 9.38947 5.03866 9.03861C5.38952 8.68774 5.8123 8.51245 6.3077 8.51245H7.5ZM8.98747 8.49995V8.51245H8.99997H15H15.0125V8.49995V6.49995C15.0125 5.66334 14.7195 4.95181 14.1338 4.36611C13.5481 3.78041 12.8366 3.48745 12 3.48745C11.1634 3.48745 10.4518 3.78041 9.86614 4.36611C9.28043 4.95181 8.98747 5.66334 8.98747 6.49995V8.49995ZM6.3077 20.0124H17.6922C17.785 20.0124 17.862 19.9825 17.9223 19.9222C17.9826 19.8619 18.0125 19.7849 18.0125 19.6922V10.3077C18.0125 10.2149 17.9826 10.1379 17.9223 10.0776C17.862 10.0173 17.785 9.98743 17.6922 9.98743H6.3077C6.215 9.98743 6.13798 10.0173 6.07769 10.0776C6.0174 10.1379 5.98747 10.2149 5.98747 10.3077V19.6922C5.98747 19.7849 6.0174 19.8619 6.07769 19.9222C6.13798 19.9825 6.215 20.0124 6.3077 20.0124ZM13.2305 16.2305C12.8925 16.5685 12.4826 16.7374 12 16.7374C11.5174 16.7374 11.1074 16.5685 10.7694 16.2305C10.4314 15.8925 10.2625 15.4825 10.2625 14.9999C10.2625 14.5173 10.4314 14.1074 10.7694 13.7694C11.1074 13.4313 11.5174 13.2625 12 13.2625C12.4826 13.2625 12.8925 13.4313 13.2305 13.7694C13.5686 14.1074 13.7375 14.5173 13.7375 14.9999C13.7375 15.4825 13.5686 15.8925 13.2305 16.2305Z" fill="black" stroke="black" stroke-width="0.025"/>
</svg>
