<svg width="24" height="24" viewBox="0 0 24 24" fill="none" xmlns="http://www.w3.org/2000/svg">
<path d="M14.6902 13.2922L14.6832 13.3009L14.6912 13.3088L20.2912 18.9088C20.4719 19.0896 20.5625 19.3196 20.5625 19.6C20.5625 19.8804 20.4719 20.1104 20.2912 20.2912C20.1104 20.4719 19.8804 20.5625 19.6 20.5625C19.3196 20.5625 19.0896 20.4719 18.9088 20.2912L13.3088 14.6912L13.3009 14.6832L13.2922 14.6902C12.7933 15.0893 12.2196 15.4053 11.5708 15.6382C10.9222 15.8711 10.232 15.9875 9.5 15.9875C7.68657 15.9875 6.15227 15.3596 4.89634 14.1037C3.6404 12.8477 3.0125 11.3134 3.0125 9.5C3.0125 7.68657 3.6404 6.15227 4.89634 4.89634C6.15227 3.6404 7.68657 3.0125 9.5 3.0125C11.3134 3.0125 12.8477 3.6404 14.1037 4.89634C15.3596 6.15227 15.9875 7.68657 15.9875 9.5C15.9875 10.232 15.8711 10.9222 15.6382 11.5708C15.4053 12.2196 15.0893 12.7933 14.6902 13.2922ZM9.5 14.0125C10.7533 14.0125 11.819 13.5737 12.6963 12.6963C13.5737 11.819 14.0125 10.7533 14.0125 9.5C14.0125 8.24672 13.5737 7.18103 12.6963 6.30366C11.819 5.42629 10.7533 4.9875 9.5 4.9875C8.24672 4.9875 7.18103 5.42629 6.30366 6.30366C5.42629 7.18103 4.9875 8.24672 4.9875 9.5C4.9875 10.7533 5.42629 11.819 6.30366 12.6963C7.18103 13.5737 8.24672 14.0125 9.5 14.0125Z" fill="black" stroke="black" stroke-width="0.025"/>
</svg>
